<?xml version="1.0" encoding="utf-8"?>
<!-- Generator: Adobe Illustrator 20.1.0, SVG Export Plug-In . SVG Version: 6.00 Build 0)  -->
<svg version="1.1" id="レイヤー_1" xmlns="http://www.w3.org/2000/svg" xmlns:xlink="http://www.w3.org/1999/xlink" x="0px"
	 y="0px" viewBox="0 0 33 39.9" style="enable-background:new 0 0 33 39.9;" xml:space="preserve">
<style type="text/css">
	.st0{fill:#1844C4;}
</style>
<path id="シェイプ_11" class="st0" d="M16,8.3c2.3,0,4.2-1.9,4.2-4.2S18.3,0,16,0s-4.2,1.9-4.2,4.2c0,0,0,0,0,0
	C11.9,6.5,13.7,8.3,16,8.3C16,8.3,16,8.3,16,8.3z M32.5,29.8L27.4,23c-0.1-0.2-0.3-0.3-0.4-0.4c-0.4-0.4-0.9-0.6-1.4-0.5h-6.4v-3.2
	h6c0.8,0,1.4-0.7,1.4-1.4c0-0.8-0.6-1.4-1.4-1.4h-6v-3.1c0-1.8-1.4-3.2-3.2-3.2l0,0h-0.1c-1.8,0-3.2,1.4-3.2,3.2v0v9.2
	c0,0,0,1.6,0,2.1c0.1,1.2,1,2.1,2.2,2h9.7l4.5,6c0.7,1,2.1,1.2,3.1,0.6C33.1,32.1,33.3,30.7,32.5,29.8L32.5,29.8z M25.6,29.8
	c-0.7-0.3-1.4,0-1.7,0.7c-1.8,4.3-6.2,7.1-10.9,6.8C6.9,36.9,2.3,31.6,2.7,25.5c0.3-4.4,3.1-8.2,7.2-9.7c0.2-0.1,0.5-0.2,0.7-0.2
	c0.7-0.2,1.1-0.9,0.9-1.6s-0.9-1.1-1.6-0.9c-0.3,0.1-0.6,0.2-0.9,0.3C1.8,16-1.8,23.9,0.9,31c0.6,1.6,1.4,3,2.5,4.3
	c2.4,2.7,5.8,4.4,9.4,4.6c0.3,0,0.6,0,0.9,0c5.5,0,10.5-3.3,12.6-8.4C26.6,30.9,26.3,30.1,25.6,29.8z"/>
</svg>
