<svg xmlns="http://www.w3.org/2000/svg" viewBox="0 0 48 48"><defs><style>.cls-1{fill:#eea301;}</style></defs><title>icon_convenient</title><g id="_23-便利なサービス" data-name="23-便利なサービス"><circle class="cls-1" cx="24" cy="27" r="2"/><path class="cls-1" d="M24,14c-1.37,0-2.12,1.06-2,2.54l.64,5.25a1.34,1.34,0,0,0,2.67,0L26,16.54C26.16,15,25.37,14,24,14Z"/><path class="cls-1" d="M23.15.23A.69.69,0,0,1,23.67,0h1.67a.69.69,0,0,1,.51.23A.77.77,0,0,1,26,.78l-.72,3.31a.79.79,0,0,1-.78.77.76.76,0,0,1-.78-.77L23,.78A.77.77,0,0,1,23.15.23Z"/><path class="cls-1" d="M35.33,2.78a.64.64,0,0,1,.54.09l1,.71.33.23a.69.69,0,0,1,.28.48.83.83,0,0,1-.19.56L34.88,7.27a.76.76,0,0,1-1.05.22.79.79,0,0,1-.19-1.09L34.9,3.17C35,3,35.15,2.83,35.33,2.78Z"/><path class="cls-1" d="M41.93,11.58a.67.67,0,0,1,.4.38l.47,1.14.15.37a.66.66,0,0,1,0,.55c-.09.17-.23.25-.47.35L39.08,15a.8.8,0,0,1-1-.41.75.75,0,0,1,.44-1l2.85-1.89A.81.81,0,0,1,41.93,11.58Z"/><path class="cls-1" d="M13.67,2.78a.64.64,0,0,0-.54.09l-1,.71-.33.23a.69.69,0,0,0-.28.48.83.83,0,0,0,.19.56l2.42,2.42a.76.76,0,0,0,1.05.22.79.79,0,0,0,.19-1.09L14.1,3.17C14,3,13.85,2.83,13.67,2.78Z"/><path class="cls-1" d="M6.07,11.58a.67.67,0,0,0-.4.38L5.2,13.11,5,13.47a.66.66,0,0,0,0,.55c.09.17.23.25.47.35L8.92,15a.8.8,0,0,0,1-.41.75.75,0,0,0-.44-1L6.65,11.65A.81.81,0,0,0,6.07,11.58Z"/><path class="cls-1" d="M24,7h0c-6.89,0-12,4.81-12,10.64,0,2.44.49,5.6,2,7.39a15.29,15.29,0,0,1,3,8.44V43a2,2,0,0,0,2,2h2a3,3,0,0,0,6,0h2a2,2,0,0,0,2-2V33.47A15.29,15.29,0,0,1,34,25c1.49-1.79,2-5,2-7.39C36,11.81,30.9,7,24,7ZM20,35h8v2H20Zm0,7V40h8v2ZM31.72,23.11l-.08.09-.07.1A19.31,19.31,0,0,0,28.09,32H19.91a19.26,19.26,0,0,0-3.47-8.7l-.07-.1-.08-.09C15.52,22.19,15,20,15,17.64,15,13.37,18.94,10,24,10H24c5,0,9,3.37,9,7.64C33,20,32.49,22.19,31.72,23.11Z"/></g></svg>