<svg id="_46-お気に入りOFF" data-name="46-お気に入りOFF" xmlns="http://www.w3.org/2000/svg" viewBox="0 0 48 48"><defs><style>.cls-1{fill:#6e6e6e;}</style></defs><title>icon_favorite_off</title><path class="cls-1" d="M35.34,6c5.16,0,9.5,4.52,9.66,10.08A12.86,12.86,0,0,1,44.13,21c-3.18,8.46-13.81,17.18-19,20.6A2.64,2.64,0,0,1,24,42a2.65,2.65,0,0,1-1.16-.41C17.66,38.16,7,29.45,3.86,21A12.8,12.8,0,0,1,3,16.11C3.17,10.54,7.49,6,12.64,6c3.23,0,6.35,1.74,9,5L24,13.92,26.33,11c2.65-3.29,5.76-5,9-5m0-3C31.55,3,27.49,4.81,24,9.15,20.47,4.82,16.4,3,12.64,3,6,3,.23,8.67,0,16a15.78,15.78,0,0,0,1,6c3.37,9,14,18,20.14,22A5.6,5.6,0,0,0,24,45a5.59,5.59,0,0,0,2.81-.91C33,40,43.57,31,46.94,22A15.84,15.84,0,0,0,48,16C47.78,8.63,42,3,35.34,3Z"/></svg>