<?xml version="1.0" standalone="no"?>
<!DOCTYPE svg PUBLIC "-//W3C//DTD SVG 20010904//EN"
 "http://www.w3.org/TR/2001/REC-SVG-20010904/DTD/svg10.dtd">
<svg version="1.0" xmlns="http://www.w3.org/2000/svg"
 width="600.000000pt" height="423.000000pt" viewBox="0 0 600.000000 423.000000"
 preserveAspectRatio="xMidYMid meet">
<metadata>
Created by potrace 1.16, written by Peter Selinger 2001-2019
</metadata>
<g transform="translate(0.000000,423.000000) scale(0.100000,-0.100000)"
fill="#000000" stroke="none">
<path d="M2 2812 c1 -779 4 -1357 8 -1283 5 108 9 136 23 146 9 6 21 23 26 36
9 22 10 22 10 3 1 -17 6 -20 31 -16 16 2 30 9 30 14 0 5 4 7 9 4 5 -3 11 0 14
8 3 7 23 16 45 20 22 3 42 9 44 13 4 10 54 44 93 63 17 8 32 18 35 21 9 10
111 40 119 34 5 -3 7 -23 4 -45 -5 -32 -2 -44 14 -58 30 -25 47 -64 44 -94 -1
-16 2 -28 8 -28 6 0 11 -5 11 -11 0 -6 -7 -9 -15 -5 -20 7 -19 -19 2 -55 12
-20 23 -27 33 -23 47 20 100 26 141 16 35 -9 47 -8 59 3 52 47 169 59 234 24
42 -22 61 -18 30 7 -18 14 -18 15 4 4 12 -6 22 -15 22 -21 0 -11 53 0 58 13 2
4 8 8 13 8 6 0 7 -4 4 -10 -3 -5 3 -10 14 -10 12 0 21 -4 21 -9 0 -11 60 9 78
26 19 18 25 16 19 -8 -4 -16 -3 -18 9 -8 10 8 14 8 14 0 0 -6 8 -11 18 -11 20
0 92 -62 109 -93 9 -18 12 -18 49 -2 21 9 50 15 64 14 14 0 27 0 30 1 6 2 59
9 75 10 6 0 32 -1 58 -3 35 -2 46 0 43 10 -3 7 1 10 8 7 7 -3 16 2 19 10 14
36 157 8 157 -29 0 -8 5 -15 11 -15 5 0 8 4 5 8 -7 12 40 55 84 78 48 25 152
25 204 0 45 -21 63 -37 95 -84 13 -18 31 -32 42 -32 13 0 18 4 13 12 -5 7 -3
8 5 4 7 -5 10 -14 7 -22 -3 -8 0 -11 9 -8 10 4 12 12 4 32 -9 25 -8 26 6 8 13
-17 15 -18 15 -3 0 17 15 23 24 9 6 -10 86 -3 86 8 0 5 9 6 20 3 36 -10 90 7
100 30 9 22 9 22 10 -3 l1 -25 11 23 c12 25 38 30 38 7 0 -9 -6 -12 -15 -9 -8
4 -15 2 -15 -3 0 -5 6 -10 13 -10 6 0 26 -3 42 -7 21 -4 24 -4 11 2 -19 8 -19
9 2 14 13 4 22 2 22 -5 0 -8 4 -7 12 1 16 16 51 15 66 0 10 -10 17 -10 32 0
29 18 140 16 140 -2 0 -8 5 -18 12 -22 7 -5 8 -3 3 7 -8 12 -6 12 8 0 13 -10
17 -10 17 -1 0 10 3 10 15 0 9 -7 15 -8 15 -2 0 5 10 8 23 5 18 -4 19 -3 7 6
-13 9 -13 11 3 11 9 0 17 -4 17 -10 0 -5 8 -10 18 -10 14 0 15 2 2 10 -10 6
-7 9 15 9 42 0 90 16 88 29 -2 8 4 8 22 0 19 -8 28 -8 40 2 18 15 20 0 3 -20
-7 -8 -9 -12 -5 -8 5 3 23 0 40 -7 19 -7 40 -9 52 -4 31 12 41 10 21 -4 -16
-12 -16 -13 3 -13 12 0 21 3 21 6 0 10 114 -13 122 -24 5 -7 8 -6 8 2 0 7 5
10 12 6 7 -4 8 -3 4 5 -4 6 -13 8 -19 5 -7 -4 -8 -3 -4 2 11 12 70 12 78 1 4
-5 49 -10 102 -12 53 -2 105 -8 115 -14 11 -6 81 -13 156 -15 75 -3 141 -8
146 -11 6 -3 10 1 10 9 0 9 8 16 19 16 11 0 22 4 25 9 3 5 18 12 33 16 33 8
43 21 43 58 0 29 20 39 20 10 1 -12 6 -7 15 12 12 27 13 28 14 7 1 -13 5 -20
11 -17 6 3 10 2 10 -4 0 -12 49 -4 68 11 10 9 12 8 10 -2 -2 -7 2 -14 9 -17 8
-3 11 7 8 34 -2 21 -2 29 1 19 5 -15 8 -16 14 -6 7 11 11 11 24 0 9 -7 19 -10
23 -6 3 3 1 6 -5 6 -7 0 -12 4 -12 9 0 6 12 6 32 0 34 -9 91 4 116 28 19 18
30 16 37 -8 6 -17 9 -19 16 -8 5 8 8 21 8 29 0 10 -3 8 -10 -5 l-9 -20 3 20
c2 12 9 19 19 17 9 -1 19 6 23 18 3 11 27 37 53 57 26 21 49 41 50 46 2 4 16
7 31 7 15 0 32 5 39 12 7 7 12 8 12 3 0 -5 7 0 15 11 13 16 16 17 25 4 8 -13
10 -12 11 5 1 11 1 29 1 40 -2 15 0 17 7 6 7 -11 11 -10 19 6 33 60 157 97
228 67 27 -11 50 -13 100 -6 50 7 67 6 71 -4 10 -26 46 -23 89 8 42 30 145 54
131 31 -6 -9 69 -53 88 -53 11 0 44 -34 39 -42 -3 -4 -1 -8 5 -8 5 0 11 5 13
12 3 8 12 4 26 -10 15 -15 34 -22 58 -22 27 0 41 -7 56 -26 11 -14 27 -23 34
-20 17 7 18 -6 2 -23 -10 -11 -10 -13 0 -7 8 5 12 0 12 -16 0 -16 -3 -19 -9
-10 -6 10 -10 10 -20 -1 -9 -12 -8 -15 6 -13 17 1 18 -41 23 -839 4 -564 6
-155 8 1248 l2 2087 -3000 0 -3000 0 2 -1418z"/>
<path d="M5230 10 l-765 -5 768 -3 c506 -1 767 1 767 8 0 6 -1 9 -2 8 -2 -2
-347 -5 -768 -8z"/>
<path d="M2152 3 c421 -2 1114 -2 1540 0 425 1 80 2 -767 2 -847 0 -1195 -1
-773 -2z"/>
</g>
</svg>
