<svg xmlns="http://www.w3.org/2000/svg" viewBox="0 0 48 48"><defs><style>.cls-1{fill:#1844c4;fill-rule:evenodd;}</style></defs><title>icon_greeting</title><g id="_17-キャラクターグリーティング" data-name="17-キャラクターグリーティング"><path class="cls-1" d="M43.37,23.85h0L32.91,19.29l3.26-.87a6.16,6.16,0,0,0,4.36-7.55,6.56,6.56,0,0,0-8-4.64L16.85,10.42l-.3,0c-.39,0-.77.1-1.14.18a5,5,0,0,0-.4-.38A5.71,5.71,0,0,0,11.4,9,8.07,8.07,0,0,0,8,9.85a5.08,5.08,0,0,1-1.17-1,1.82,1.82,0,0,0-2.12-.5C1.57,9.71-2.49,12.81,2,17.08a9.08,9.08,0,0,0-.31,2.29A6.91,6.91,0,0,0,2.19,22a5.52,5.52,0,0,0,1.64,2.2,5.27,5.27,0,0,0,.86.55c0,.16,0,.32,0,.48a13.23,13.23,0,0,0,4.42,8.45l.06.06.16.14c.41.36,1.66,1.4,2.94,2.44.64.52,1.28,1,1.83,1.45l.74.55.44.3h0l.15.11a38.21,38.21,0,0,0,4.84,2.72,19.75,19.75,0,0,0,2.53,1,8.58,8.58,0,0,0,2.43.41h.13a6.51,6.51,0,0,0,5.29-2.74l.12.05a6.51,6.51,0,0,0,8.57-3.36c0-.05,0-.11.06-.16A6.46,6.46,0,0,0,47,33a6.93,6.93,0,0,0-3.58-9.13ZM9.16,13.75q-.45.4-.87.84l-.17.18a13.45,13.45,0,0,0-.88,1.09L7,16.17c-.23.34-.45.68-.65,1l-.12.2a13.35,13.35,0,0,0-.59,1.25l-.16.42c-.14.37-.26.75-.37,1.13,0,.11-.06.22-.09.33s0,.24-.08.36H5a3.92,3.92,0,0,1-.28-1.52,7.49,7.49,0,0,1,1.75-4.51,8.27,8.27,0,0,1,2.49-2.12,5.8,5.8,0,0,1,1.77-.63,1.5,1.5,0,0,0-.79,1l-.43.34Zm2.2,18h0Zm-.91,2.41h0v0Zm1.26-1.46ZM42.18,26.6a3.93,3.93,0,0,1,2,5.18,3.51,3.51,0,0,1-4.62,1.81L39,33.34l-.17-.05a1.49,1.49,0,0,0-.29-.17c-5-2.2-10.46-4.45-10.46-4.45a1.5,1.5,0,1,0-1.15,2.77h0l.92.38c1.65.69,5.26,2.21,8.8,3.74l0,.09a3.44,3.44,0,0,1-4.34,1.9c-5-2.17-7-3-7-3a1.5,1.5,0,1,0-1.11,2.79h0l.09,0c.31.13,1.45.59,3.6,1.51a3.53,3.53,0,0,1-2.45,1h-.13a5.74,5.74,0,0,1-1.56-.29,28.39,28.39,0,0,1-6.51-3.29h0a1.38,1.38,0,0,0-.25-.17l-.37-.25c-.73-.53-2.1-1.63-3.25-2.58l-1.49-1.24-.45-.38-.1-.09h0l-.05-.06a10.24,10.24,0,0,1-3.5-6.62c0-.33,0-.65-.05-1v-.22c0-.08,0-.15,0-.23q0-.43.05-.86c0-.14,0-.28.05-.42,0-.32.11-.63.18-.94C8,21.2,8,21.09,8,21q.12-.43.28-.85l.13-.34a10.4,10.4,0,0,1,.45-1l.1-.17c.15-.27.32-.53.49-.79l.18-.26a10.47,10.47,0,0,1,.68-.84l.15-.15q.32-.33.66-.64l.24-.21a10.22,10.22,0,0,1,2.26-1.44h0a10.34,10.34,0,0,1,1.59-.58l.21-.06a10.12,10.12,0,0,1,1.4-.27l.33,0,.29,0L33.27,9.12a3.56,3.56,0,0,1,4.36,2.52,3.16,3.16,0,0,1-2.24,3.87l-7,1.87-1.71-.71a1.5,1.5,0,0,0-1.14,2.78l.59.24c1.16.48,4,1.65,7.72,3.29h0Z"/><polygon class="cls-1" points="25.57 19.45 25.57 19.45 25.57 19.45 25.57 19.45"/><path class="cls-1" d="M18.49,22.12q-1.11-.42-3.95-1.28l-1-.3-.84-.26-.4-.13a.25.25,0,0,0-.31,0c-.09,0-.14.14-.13.3a.35.35,0,0,0,.16.31,12.33,12.33,0,0,0,3,1.94,21.41,21.41,0,0,0,3.09,1.33,1.28,1.28,0,0,0,.94,0,.77.77,0,0,0,.56-.76C19.62,22.8,19.23,22.41,18.49,22.12Z"/><path class="cls-1" d="M16.87,25.83a22.34,22.34,0,0,1-3.29-1.52,11.66,11.66,0,0,1-2.25-1.52.25.25,0,0,0-.28-.1c-.21.08-.27.25-.18.48a7.54,7.54,0,0,0,3.5,3.47,10.93,10.93,0,0,0,2.54,1.14.76.76,0,0,0,.52,0,.69.69,0,0,0,.46-.71C17.89,26.52,17.55,26.11,16.87,25.83Z"/><path class="cls-1" d="M14.78,28.87a14.13,14.13,0,0,1-1.93-1.21,22,22,0,0,1-2.49-2,.32.32,0,0,0-.32-.08c-.19.08-.24.23-.14.47a6,6,0,0,0,2,2.49A9.07,9.07,0,0,0,14,30a1.66,1.66,0,0,0,1.23.21h0a.42.42,0,0,0,.28-.44C15.56,29.37,15.29,29.08,14.78,28.87Z"/></g></svg>